<?xml version="1.0" encoding="utf-8"?>
<svg viewBox="0 0 16 16" xmlns="http://www.w3.org/2000/svg">
  <g fill="none" stroke="black" font-family="Times New Roman" font-size="16" transform="matrix(0.232764, 0, 0, -0.232764, -3.350188, -3.338832)">
    <g transform="translate(0 -96)">
      <g>
        <path d="M 61.32,13.144 L 37.99,13.248 C 37.003,13.252 36.188,14.022 36.127,15.007 C 35.651,22.74 31.001,28.627 26.729,35.139 C 24.716,38.207 23.646,42.099 24.463,45.49 C 25.229,48.675 27.576,51.075 31.459,51.868 L 32.099,51.955 L 32.099,74.65 L 32.088,75.309 C 32.139,77.083 32.77,78.595 33.953,79.689 C 35.26,80.898 37.007,81.374 38.722,81.374 C 40.593,81.374 42.539,81.111 43.858,79.691 C 45.151,78.3 45.377,76.286 45.303,74.199 L 45.277,64.829 L 46.001,65.034 C 46.495,65.122 46.998,65.163 47.497,65.163 C 48.479,65.163 49.422,65.088 50.273,64.854 C 51.149,64.613 51.972,64.192 52.633,63.48 C 52.956,63.131 53.213,62.744 53.415,62.327 L 53.702,61.481 L 55.027,61.855 C 55.521,61.943 56.023,61.984 56.522,61.984 C 57.504,61.984 58.447,61.909 59.298,61.675 C 60.173,61.434 60.996,61.013 61.657,60.301 C 62.304,59.604 62.684,58.753 62.892,57.815 L 62.907,57.705 L 63.195,57.754 C 63.515,57.789 63.838,57.806 64.161,57.806 C 66.294,57.806 68.13,57.271 69.433,55.555 C 70.56,54.07 71.086,51.915 71.53,49.367 C 73.495,36.554 64.384,23.144 63.185,14.753 C 63.052,13.827 62.256,13.139 61.32,13.144 Z M 59.773,16.899 L 59.806,17.075 C 61.868,26.211 69.494,37.907 67.829,48.76 C 67.379,51.343 66.952,52.621 66.446,53.287 C 66.116,53.722 65.639,54.056 64.161,54.056 C 63.763,54.056 63.41,54.014 63.098,53.94 L 63.041,48.298 C 63.032,47.263 62.184,46.431 61.149,46.441 C 60.114,46.45 59.282,47.298 59.292,48.333 L 59.353,54.887 C 59.424,56.923 59.101,57.543 58.91,57.749 C 58.741,57.93 58.259,58.234 56.522,58.234 C 55.267,58.234 54.492,57.832 54.086,57.319 L 54.016,51.476 C 54.007,50.441 53.159,49.609 52.124,49.619 C 51.089,49.628 50.257,50.476 50.267,51.511 L 50.329,58.064 C 50.4,60.1 50.077,60.721 49.886,60.928 C 49.717,61.109 49.233,61.413 47.497,61.413 C 46.555,61.413 45.884,61.186 45.443,60.862 L 45.266,60.692 L 45.241,51.297 C 45.239,50.262 44.396,49.425 43.361,49.428 C 42.326,49.43 41.489,50.273 41.492,51.308 L 41.554,74.27 C 41.625,76.312 41.304,76.93 41.111,77.139 C 40.942,77.32 40.459,77.624 38.722,77.624 C 37.651,77.624 36.921,77.326 36.499,76.936 C 36.119,76.584 35.77,75.963 35.845,74.766 L 35.849,74.65 L 35.849,41.386 C 35.849,40.351 35.008,39.511 33.974,39.511 C 32.939,39.511 32.099,40.351 32.099,41.386 L 32.099,48.163 L 31.224,47.931 C 29.319,47.273 28.443,46.001 28.109,44.612 C 27.603,42.511 28.236,39.678 29.864,37.196 C 33.351,31.881 37.972,25.931 39.444,18.51 L 39.695,16.989 L 59.773,16.899 Z" stroke="none" fill="#000000" fill-rule="evenodd" stroke-width="0.5" marker-start="none" marker-end="none" stroke-miterlimit="79.8403193612775"/>
      </g>
    </g>
  </g>
</svg>