<?xml version="1.0" encoding="utf-8"?>
<svg viewBox="0 0 16 16" xmlns="http://www.w3.org/2000/svg">
  <path d="M 14.494 6.863 L 12.065 9.411 C 11.905 9.579 11.664 9.579 11.503 9.411 C 11.342 9.242 11.342 8.989 11.503 8.821 L 13.932 6.274 C 15.116 5.032 15.116 3.011 13.932 1.768 C 13.35 1.158 12.607 0.842 11.784 0.842 C 10.961 0.842 10.218 1.179 9.636 1.768 L 7.207 4.316 C 6.023 5.558 6.023 7.579 7.207 8.821 C 7.488 9.116 7.83 9.368 8.211 9.516 C 8.411 9.6 8.512 9.853 8.432 10.063 C 8.372 10.232 8.211 10.316 8.05 10.316 C 7.99 10.316 7.95 10.316 7.89 10.295 C 7.408 10.084 6.986 9.789 6.625 9.411 C 5.139 7.853 5.139 5.284 6.625 3.726 L 9.054 1.179 C 9.797 0.421 10.76 0 11.784 0 C 12.808 0 13.771 0.421 14.494 1.179 C 16 2.737 16 5.305 14.494 6.863 Z M 8.071 5.705 C 7.869 5.621 7.628 5.726 7.548 5.937 C 7.468 6.147 7.568 6.4 7.769 6.484 C 8.151 6.653 8.492 6.884 8.773 7.179 C 9.958 8.421 9.958 10.442 8.773 11.684 L 6.344 14.232 C 5.762 14.842 5.018 15.158 4.196 15.158 C 3.372 15.158 2.63 14.821 2.048 14.232 C 0.863 12.989 0.863 10.968 2.048 9.726 L 4.477 7.179 C 4.637 7.011 4.637 6.758 4.477 6.589 C 4.316 6.421 4.075 6.421 3.914 6.589 L 1.485 9.137 C 0 10.695 0 13.263 1.485 14.821 C 2.208 15.579 3.172 16 4.196 16 C 5.22 16 6.184 15.579 6.906 14.821 L 9.335 12.274 C 10.821 10.716 10.821 8.147 9.335 6.589 C 8.974 6.211 8.552 5.916 8.071 5.705 Z"/>
</svg>